<svg xmlns="http://www.w3.org/2000/svg" xmlns:xlink="http://www.w3.org/1999/xlink" width="319.644" height="73.01" viewBox="0 0 319.644 73.01">
  <defs>
    <clipPath id="clip-path">
      <path id="Path_140" data-name="Path 140" d="M84.576,216.3v-7.369L54.036,190.676,23.5,208.928v21.28l24.477,14.469,3-5.374-21.315-12.74V216.29l45.683,27.3-21.3,12.732L23.5,238.055v7.378l30.539,18.253,30.539-18.253v-21.29L57.711,208.008l-3.079,5.521,23.785,14.216v10.327l-45.683-27.3,21.3-12.732Z" transform="translate(-23.497 -190.676)" fill="#ff6c1a"/>
    </clipPath>
  </defs>
  <g id="Group_56" data-name="Group 56" transform="translate(-50 -33)">
    <g id="Group_54" data-name="Group 54" transform="translate(50 33)">
      <path id="Path_112" data-name="Path 112" d="M84.576,216.3v-7.369L54.036,190.676,23.5,208.928v21.28l24.477,14.469,3-5.374-21.315-12.74V216.29l45.683,27.3-21.3,12.732L23.5,238.055v7.378l30.539,18.253,30.539-18.253v-21.29L57.711,208.008l-3.079,5.521,23.785,14.216v10.327l-45.683-27.3,21.3-12.732Z" transform="translate(-23.497 -190.676)" fill="#ff6c1a"/>
      <g id="Group_53" data-name="Group 53" clip-path="url(#clip-path)">
        <g id="Group_52" data-name="Group 52" transform="translate(-10.667 -5.036)">
          <g id="Group_25" data-name="Group 25" transform="translate(48.418 32.16)">
            <path id="Path_113" data-name="Path 113" d="M78.457,228.217,75.117,235.4l17-4.113-.385-3.522Z" transform="translate(-75.117 -227.766)" fill="#ff6c1a"/>
          </g>
          <g id="Group_26" data-name="Group 26" transform="translate(33.75 32.611)">
            <path id="Path_114" data-name="Path 114" d="M55.061,228.994l7.456,8.318,7.212-1.745,3.339-7.184Z" transform="translate(-55.061 -228.382)" fill="#ff6c1a"/>
          </g>
          <g id="Group_27" data-name="Group 27" transform="translate(63.284 16.174)">
            <path id="Path_115" data-name="Path 115" d="M97.191,221.893l17.382-.591-13.138-14.657-5.99-.738Z" transform="translate(-95.445 -205.907)" fill="#ff6c1a"/>
          </g>
          <g id="Group_28" data-name="Group 28" transform="translate(41.206 39.795)">
            <path id="Path_116" data-name="Path 116" d="M69.471,244.654l3-6.447-7.212,1.745Z" transform="translate(-65.256 -238.206)" fill="#ff6c1a"/>
          </g>
          <g id="Group_29" data-name="Group 29" transform="translate(65.03 31.569)">
            <path id="Path_117" data-name="Path 117" d="M98.218,231.071l17-4.113-17.382.591Z" transform="translate(-97.833 -226.958)" fill="#ff6c1a"/>
          </g>
          <g id="Group_30" data-name="Group 30" transform="translate(18.038 33.223)">
            <path id="Path_118" data-name="Path 118" d="M49.289,229.219l-15.076.512-.637.606,2.565,12.185,20.6-4.986Z" transform="translate(-33.576 -229.219)" fill="#ff6c1a"/>
          </g>
          <g id="Group_31" data-name="Group 31" transform="translate(27.057 13.322)">
            <path id="Path_119" data-name="Path 119" d="M70.609,221.3l7.85-16.889-19.488-2.4L45.909,214.441l6.693,7.467Z" transform="translate(-45.909 -202.007)" fill="#ff6c1a"/>
          </g>
          <g id="Group_32" data-name="Group 32" transform="translate(51.757 15.722)">
            <path id="Path_120" data-name="Path 120" d="M92.957,221.726,91.21,205.741l-3.676-.453-7.85,16.889Z" transform="translate(-79.684 -205.288)" fill="#ff6c1a"/>
          </g>
          <g id="Group_33" data-name="Group 33" transform="translate(17.916 33.735)">
            <path id="Path_121" data-name="Path 121" d="M33.409,229.946l.122.58.637-.606Z" transform="translate(-33.409 -229.92)" fill="#ff6c1a"/>
          </g>
          <g id="Group_34" data-name="Group 34" transform="translate(20.603 41.541)">
            <path id="Path_122" data-name="Path 122" d="M37.084,245.578l4.253,20.2,10.354,1.479L61.9,245.295l-4.215-4.7Z" transform="translate(-37.084 -240.593)" fill="#ff6c1a"/>
          </g>
          <g id="Group_35" data-name="Group 35" transform="translate(18.675 25.756)">
            <path id="Path_123" data-name="Path 123" d="M42.829,219.009l-8.383,7.979,15.076-.512Z" transform="translate(-34.447 -219.009)" fill="#ff6c1a"/>
          </g>
          <g id="Group_36" data-name="Group 36" transform="translate(59.608 9.404)">
            <path id="Path_124" data-name="Path 124" d="M94.094,203.42l-.74-6.77-2.936,6.317Z" transform="translate(-90.418 -196.65)" fill="#ff6c1a"/>
          </g>
          <g id="Group_37" data-name="Group 37" transform="translate(62.544 9.404)">
            <path id="Path_125" data-name="Path 125" d="M101.163,204.158l-6.73-7.508.74,6.77Z" transform="translate(-94.434 -196.65)" fill="#ff6c1a"/>
          </g>
          <g id="Group_38" data-name="Group 38" transform="translate(28.298 68.21)">
            <path id="Path_126" data-name="Path 126" d="M47.605,291.931l41.206-9.971-34.294-4.9Z" transform="translate(-47.605 -277.06)" fill="#ff6c1a"/>
          </g>
          <g id="Group_39" data-name="Group 39" transform="translate(24.856 66.731)">
            <path id="Path_127" data-name="Path 127" d="M42.9,275.037l3.442,16.35,6.912-14.871Z" transform="translate(-42.899 -275.037)" fill="#ff6c1a"/>
          </g>
          <g id="Group_40" data-name="Group 40" transform="translate(11.994 64.893)">
            <path id="Path_128" data-name="Path 128" d="M25.312,272.525l16.3,18.188-3.442-16.35Z" transform="translate(-25.312 -272.525)" fill="#ff6c1a"/>
          </g>
          <g id="Group_41" data-name="Group 41" transform="translate(0 46.526)">
            <path id="Path_129" data-name="Path 129" d="M29.514,247.41,8.911,252.4l11.994,13.381,12.862,1.838Z" transform="translate(-8.911 -247.41)" fill="#ff6c1a"/>
          </g>
          <g id="Group_42" data-name="Group 42" transform="translate(35.21 46.243)">
            <path id="Path_130" data-name="Path 130" d="M57.057,268.99l34.294,4.9L67.268,247.022Z" transform="translate(-57.057 -247.022)" fill="#ff6c1a"/>
          </g>
          <g id="Group_43" data-name="Group 43" transform="translate(65.415 31.569)">
            <path id="Path_131" data-name="Path 131" d="M98.359,231.071l4.089,37.427,7.528-24.227,5.38-17.314Z" transform="translate(-98.359 -226.958)" fill="#ff6c1a"/>
          </g>
          <g id="Group_44" data-name="Group 44" transform="translate(45.421 35.682)">
            <path id="Path_132" data-name="Path 132" d="M74.016,236.7l-3,6.447L95.1,270.009l-4.089-37.427Z" transform="translate(-71.019 -232.582)" fill="#ff6c1a"/>
          </g>
          <g id="Group_45" data-name="Group 45" transform="translate(12.908)">
            <path id="Path_133" data-name="Path 133" d="M67.768,183.79l-41.206,9.971,27.211,3.351Z" transform="translate(-26.562 -183.79)" fill="#ff6c1a"/>
          </g>
          <g id="Group_46" data-name="Group 46" transform="translate(12.908 9.971)">
            <path id="Path_134" data-name="Path 134" d="M53.773,200.776l-27.211-3.351L40.711,213.21Z" transform="translate(-26.562 -197.425)" fill="#ff6c1a"/>
          </g>
          <g id="Group_47" data-name="Group 47" transform="translate(40.119)">
            <path id="Path_135" data-name="Path 135" d="M83.258,199.512l2.936-6.317-8.43-9.4-14,13.322Z" transform="translate(-63.77 -183.79)" fill="#ff6c1a"/>
          </g>
          <g id="Group_48" data-name="Group 48" transform="translate(0 34.341)">
            <path id="Path_136" data-name="Path 136" d="M26.949,230.748,8.911,247.919l20.6-4.986Z" transform="translate(-8.911 -230.748)" fill="#ff6c1a"/>
          </g>
          <g id="Group_49" data-name="Group 49" transform="translate(12.908 9.971)">
            <path id="Path_137" data-name="Path 137" d="M32.328,221.189l8.383-7.979L26.562,197.425l5.008,23.79Z" transform="translate(-26.562 -197.425)" fill="#ff6c1a"/>
          </g>
          <g id="Group_50" data-name="Group 50" transform="translate(5.384 9.971)">
            <path id="Path_138" data-name="Path 138" d="M23.8,197.425l-7.525,24.216,12.532-.426Z" transform="translate(-16.273 -197.425)" fill="#ff6c1a"/>
          </g>
          <g id="Group_51" data-name="Group 51" transform="translate(0 33.761)">
            <path id="Path_139" data-name="Path 139" d="M26.827,229.955l-12.532.426L8.911,247.706l18.038-17.171Z" transform="translate(-8.911 -229.955)" fill="#ff6c1a"/>
          </g>
        </g>
      </g>
    </g>
    <g id="Group_55" data-name="Group 55" transform="translate(130.598 43.582)">
      <g id="Group_9" data-name="Group 9" transform="translate(0 0)">
        <path id="Path_77" data-name="Path 77" d="M150.124,37.256a9.512,9.512,0,0,0-6.937-2.343c-3.468-.045-6.8,1.261-6.711,4.1.09,2.972,3.964,3.558,6.756,4.053,3.964.676,9.414,1.351,9.189,6.531-.136,4.909-5.225,6.215-9.144,6.215s-7.792-1.486-9.729-4.459l1.622-1.442c1.846,2.657,5.179,3.784,8.153,3.784,2.7,0,6.8-.721,6.937-4.234.09-3.2-3.6-3.828-7.252-4.414-4.324-.721-8.6-1.531-8.648-5.991-.045-4.369,4.324-6.26,8.827-6.215a11.659,11.659,0,0,1,8.288,2.972Z" transform="translate(-133.549 -23.923)" stroke="#000" stroke-width="1"/>
        <path id="Path_78" data-name="Path 78" d="M179.442,64.751V33.222H181.6v5.27a10.6,10.6,0,0,1,9.639-5.585c6.036.225,10.81,4.279,10.81,11.441,0,7.478-5.045,11.531-11.3,11.531a10.043,10.043,0,0,1-9.189-5.54V64.751Zm20.4-20.4c0-6.26-4.053-9.323-9.1-9.323-5.18,0-9.009,3.918-9.009,9.368s3.919,9.369,9.009,9.369C195.792,53.761,199.846,50.608,199.846,44.347Z" transform="translate(-147.54 -23.943)" stroke="#000" stroke-width="1"/>
        <path id="Path_79" data-name="Path 79" d="M252.287,33.241V55.492H250.08v-4.73a10.4,10.4,0,0,1-9.1,5.09,11.131,11.131,0,0,1-11.3-11.486,11.056,11.056,0,0,1,11.3-11.4,10.1,10.1,0,0,1,9.1,5.135V33.241Zm-20.4,11.125a8.936,8.936,0,0,0,9.1,9.324c12.387,0,12.387-18.6,0-18.6A8.9,8.9,0,0,0,231.883,44.366Z" transform="translate(-162.855 -23.963)" stroke="#000" stroke-width="1"/>
        <path id="Path_80" data-name="Path 80" d="M284.573,33.26l.09,3.964c1.4-3.018,4.549-4.189,7.387-4.189a8.685,8.685,0,0,1,4.774,1.306l-.991,1.8a7.149,7.149,0,0,0-3.783-1.036,7.39,7.39,0,0,0-7.342,7.432V55.51H282.5V33.26Z" transform="translate(-178.96 -23.981)" stroke="#000" stroke-width="1"/>
        <path id="Path_81" data-name="Path 81" d="M321.743,20.012V39.02l10.5-9.729h2.927v.09L323.9,39.785l12.567,11.621v.135h-2.792l-11.936-10.9v10.9h-2.162V20.012Z" transform="translate(-190.264 -20.012)" stroke="#000" stroke-width="1"/>
        <path id="Path_82" data-name="Path 82" d="M356.79,44.352c0-7.072,5.045-11.575,11.306-11.575s11.3,4.5,11.3,11.575-5.044,11.4-11.3,11.4S356.79,51.424,356.79,44.352Zm20.449,0c0-5.765-4.1-9.5-9.143-9.5s-9.144,3.738-9.144,9.5a9.144,9.144,0,1,0,18.287,0Z" transform="translate(-201.608 -23.904)" stroke="#000" stroke-width="1"/>
        <path id="Path_83" data-name="Path 83" d="M426.227,55.591V51.582a8.851,8.851,0,0,1-7.927,4.369c-5.945,0-10.044-3.648-10.044-9.819V33.3h2.207V46.087c0,5.045,3.108,7.747,7.927,7.7a7.732,7.732,0,0,0,7.792-8.107V33.3h2.207v22.3Z" transform="translate(-217.298 -24.062)" stroke="#000" stroke-width="1"/>
        <path id="Path_84" data-name="Path 84" d="M461.558,23.705v6.712h7.567v1.847h-7.567V45.821c0,3.018.631,5.135,4.1,5.135a8.259,8.259,0,0,0,3.423-.9l.766,1.8a9.725,9.725,0,0,1-4.189,1.126c-4.73,0-6.261-2.793-6.261-7.162V32.263h-4.729V30.417H459.4V23.93Z" transform="translate(-231.447 -21.138)" stroke="#000" stroke-width="1"/>
      </g>
      <g id="Group_23" data-name="Group 23" transform="translate(55.641 42.496)">
        <g id="Group_10" data-name="Group 10" transform="translate(0 0.158)">
          <path id="Path_85" data-name="Path 85" d="M217.343,82.416H214v-.634h7.4v.634h-3.342v8.6h-.714Z" transform="translate(-213.717 -81.498)" fill="#231f20"/>
          <path id="Path_86" data-name="Path 86" d="M218.216,91.176h-1.281v-8.6h-3.342v-1.2h7.965v1.2h-3.342Zm-.714-.567h.146v-8.6h3.343v-.067H214.16v.067H217.5Z" transform="translate(-213.593 -81.374)" fill="#221f1f"/>
        </g>
        <g id="Group_11" data-name="Group 11" transform="translate(13.763 0.145)">
          <path id="Path_87" data-name="Path 87" d="M234.5,86.03h5.417v.647H234.5v3.646h5.839v.687H233.8V81.763h6.381v.674H234.5Z" transform="translate(-233.517 -81.479)" fill="#231f20"/>
          <path id="Path_88" data-name="Path 88" d="M240.5,91.17h-7.107V81.354h6.949V82.6H234.66v3.027h5.416v1.214H234.66v3.079H240.5ZM233.96,90.6h5.972v-.12h-5.839V86.269h5.417v-.079h-5.417V82.028h5.681v-.106H233.96Z" transform="translate(-233.392 -81.354)" fill="#221f1f"/>
        </g>
        <g id="Group_12" data-name="Group 12" transform="translate(26.655 0.04)">
          <path id="Path_89" data-name="Path 89" d="M260.472,89.683A4.759,4.759,0,0,1,257.1,91.07a4.73,4.73,0,1,1,0-9.459A4.761,4.761,0,0,1,260.472,83l-.489.423a4.045,4.045,0,0,0-2.88-1.176,4.083,4.083,0,0,0,0,8.165A4.135,4.135,0,0,0,260,89.234Z" transform="translate(-252.063 -81.327)" fill="#231f20"/>
          <path id="Path_90" data-name="Path 90" d="M256.979,91.23a4.754,4.754,0,0,1-5.04-4.959,5.07,5.07,0,0,1,1.4-3.668,5.245,5.245,0,0,1,7.209.07l.215.216-.919.8-.186-.186a3.988,3.988,0,0,0-5.416-.067,3.9,3.9,0,0,0-1.05,2.81A3.575,3.575,0,0,0,256.979,90a3.869,3.869,0,0,0,2.694-1.094l.195-.193.887.839-.206.206A5.012,5.012,0,0,1,256.979,91.23Zm0-9.459A4.425,4.425,0,0,0,253.743,83a4.507,4.507,0,0,0-1.237,3.264,4.217,4.217,0,0,0,4.472,4.4,4.453,4.453,0,0,0,2.955-1.1l-.064-.06a4.449,4.449,0,0,1-2.891,1.071,4.147,4.147,0,0,1-4.353-4.322,4.456,4.456,0,0,1,1.214-3.216,4.568,4.568,0,0,1,6.026-.116l.057-.049A4.454,4.454,0,0,0,256.979,81.77Z" transform="translate(-251.938 -81.203)" fill="#221f1f"/>
        </g>
        <g id="Group_13" data-name="Group 13" transform="translate(41.132 0.145)">
          <path id="Path_91" data-name="Path 91" d="M279.779,91.011v-4.2h-5.892v4.2h-.714V81.763h.714v4.4h5.892v-4.4h.714v9.248Z" transform="translate(-272.889 -81.479)" fill="#231f20"/>
          <path id="Path_92" data-name="Path 92" d="M280.652,91.17h-1.281v-4.2h-5.325v4.2h-1.281V81.354h1.281v4.4h5.325v-4.4h1.281Zm-.714-.567h.147V81.922h-.147v4.4h-6.459v-4.4h-.146V90.6h.146V86.4h6.459Z" transform="translate(-272.765 -81.354)" fill="#221f1f"/>
        </g>
        <g id="Group_14" data-name="Group 14" transform="translate(69.392 0.013)">
          <path id="Path_93" data-name="Path 93" d="M320.56,83.488a2.994,2.994,0,0,0-2.8-1.255c-1.084,0-2.8.4-2.8,1.876,0,1.176,1.268,1.453,2.827,1.744,1.784.343,3.633.66,3.633,2.655C321.4,90.6,319.3,91.1,317.759,91.1a4.16,4.16,0,0,1-3.792-2.008l.635-.317a3.622,3.622,0,0,0,3.157,1.678c1.136,0,2.946-.318,2.946-1.955.013-1.387-1.519-1.691-3.038-1.982-1.691-.33-3.422-.674-3.422-2.378-.04-1.955,2-2.563,3.515-2.563a3.555,3.555,0,0,1,3.382,1.572Z" transform="translate(-313.585 -81.289)" fill="#231f20"/>
          <path id="Path_94" data-name="Path 94" d="M317.592,91.258a4.44,4.44,0,0,1-4.045-2.164l-.129-.254,1.141-.571.128.252a3.35,3.35,0,0,0,2.9,1.522c.8,0,2.662-.163,2.662-1.671.01-1.083-1.105-1.378-2.808-1.7s-3.652-.715-3.652-2.658a2.382,2.382,0,0,1,.68-1.777,4.435,4.435,0,0,1,3.118-1.069,3.814,3.814,0,0,1,3.618,1.7l.167.25-1.079.637-.147-.235a2.683,2.683,0,0,0-2.563-1.122c-.254,0-2.514.045-2.514,1.593,0,.915.981,1.164,2.6,1.465l.1.019c1.763.339,3.761.723,3.761,2.914C321.523,90.184,320.05,91.258,317.592,91.258Zm-3.4-2.172a4,4,0,0,0,3.4,1.6c1.011,0,3.362-.225,3.376-2.308,0-1.6-1.247-1.96-3.3-2.355l-.1-.019c-1.5-.282-3.057-.572-3.057-2.024,0-1.492,1.549-2.16,3.084-2.16a3.38,3.38,0,0,1,2.884,1.159l.086-.05a3.32,3.32,0,0,0-2.97-1.2,3.87,3.87,0,0,0-2.712.9,1.832,1.832,0,0,0-.518,1.375c0,1.378,1.264,1.727,3.192,2.1,1.538.294,3.284.628,3.269,2.263,0,1.4-1.207,2.236-3.23,2.236a4.02,4.02,0,0,1-3.27-1.588Z" transform="translate(-313.418 -81.165)" fill="#221f1f"/>
        </g>
        <g id="Group_15" data-name="Group 15" transform="translate(83.293)">
          <path id="Path_95" data-name="Path 95" d="M343.152,86.337a4.665,4.665,0,1,1-9.327-.026,4.665,4.665,0,1,1,9.327.026Zm-8.627-.013a3.973,3.973,0,1,0,7.94,0,3.972,3.972,0,1,0-7.94,0Z" transform="translate(-333.541 -81.27)" fill="#231f20"/>
          <path id="Path_96" data-name="Path 96" d="M338.363,91.265a4.811,4.811,0,0,1-4.947-5.079,4.738,4.738,0,0,1,4.947-5.04A4.852,4.852,0,0,1,341.9,82.5a5.153,5.153,0,0,1,1.412,3.713A4.815,4.815,0,0,1,338.363,91.265Zm0-9.551a4.2,4.2,0,0,0-4.379,4.472,4.267,4.267,0,0,0,4.379,4.511,4.224,4.224,0,0,0,4.38-4.486h0A4.592,4.592,0,0,0,341.5,82.9,4.3,4.3,0,0,0,338.363,81.714Zm0,8.891a4.173,4.173,0,0,1-4.247-4.4h0a4.482,4.482,0,0,1,1.214-3.236,4.162,4.162,0,0,1,3.033-1.16,4.108,4.108,0,0,1,4.26,4.393A4.16,4.16,0,0,1,338.363,90.6ZM334.684,86.2a3.689,3.689,0,1,0,7.373,0,3.773,3.773,0,0,0-6.324-2.833,3.924,3.924,0,0,0-1.049,2.831Z" transform="translate(-333.416 -81.146)" fill="#221f1f"/>
        </g>
        <g id="Group_16" data-name="Group 16" transform="translate(98.973 0.145)">
          <path id="Path_97" data-name="Path 97" d="M357.094,81.763v8.574H362.3v.674h-5.918V81.763Z" transform="translate(-356.098 -81.479)" fill="#231f20"/>
          <path id="Path_98" data-name="Path 98" d="M362.459,91.17h-6.486V81.354h1.281v8.574h5.205ZM356.54,90.6h5.351V90.5h-5.205V81.922h-.146Z" transform="translate(-355.973 -81.354)" fill="#221f1f"/>
        </g>
        <g id="Group_17" data-name="Group 17" transform="translate(111.244 0.145)">
          <path id="Path_99" data-name="Path 99" d="M381.115,81.763V87.51a3.542,3.542,0,1,1-7.082,0V81.763h.7V87.51a2.843,2.843,0,1,0,5.681,0V81.763Z" transform="translate(-373.749 -81.479)" fill="#231f20"/>
          <path id="Path_100" data-name="Path 100" d="M377.446,91.3a3.724,3.724,0,0,1-3.821-3.916V81.354h1.267v6.031a2.683,2.683,0,0,0,.8,2.026,2.557,2.557,0,0,0,1.757.667,2.515,2.515,0,0,0,2.561-2.694V81.354h1.268v6.031A3.747,3.747,0,0,1,377.446,91.3Zm-3.253-9.379v5.463a3.158,3.158,0,0,0,3.253,3.348,3.165,3.165,0,0,0,3.261-3.348V81.922h-.133v5.463a3.091,3.091,0,0,1-3.128,3.262,3.126,3.126,0,0,1-2.144-.82,3.231,3.231,0,0,1-.977-2.441V81.922Z" transform="translate(-373.625 -81.354)" fill="#221f1f"/>
        </g>
        <g id="Group_18" data-name="Group 18" transform="translate(124.677 0.158)">
          <path id="Path_101" data-name="Path 101" d="M396.7,82.416h-3.342v-.634h7.4v.634h-3.342v8.6H396.7Z" transform="translate(-393.075 -81.498)" fill="#231f20"/>
          <path id="Path_102" data-name="Path 102" d="M397.574,91.176h-1.281v-8.6H392.95v-1.2h7.966v1.2h-3.342Zm-.714-.567h.146v-8.6h3.343v-.067h-6.831v.067h3.342Z" transform="translate(-392.95 -81.374)" fill="#221f1f"/>
        </g>
        <g id="Group_19" data-name="Group 19" transform="translate(138.428 0.145)">
          <path id="Path_103" data-name="Path 103" d="M413.14,91.011V81.763h.7v9.248Z" transform="translate(-412.857 -81.479)" fill="#231f20"/>
          <path id="Path_104" data-name="Path 104" d="M414,91.17h-1.268V81.354H414Zm-.7-.567h.133V81.922H413.3Z" transform="translate(-412.732 -81.354)" fill="#221f1f"/>
        </g>
        <g id="Group_20" data-name="Group 20" transform="translate(145.48)">
          <path id="Path_105" data-name="Path 105" d="M432.613,86.337a4.665,4.665,0,1,1-9.327-.026,4.665,4.665,0,1,1,9.327.026Zm-8.627-.013a3.973,3.973,0,1,0,7.94,0,3.972,3.972,0,1,0-7.94,0Z" transform="translate(-423.002 -81.27)" fill="#231f20"/>
          <path id="Path_106" data-name="Path 106" d="M427.824,91.265a4.811,4.811,0,0,1-4.947-5.079,4.738,4.738,0,0,1,4.947-5.04,4.851,4.851,0,0,1,3.536,1.355,5.149,5.149,0,0,1,1.411,3.713A4.814,4.814,0,0,1,427.824,91.265Zm0-9.551a4.2,4.2,0,0,0-4.379,4.472,4.267,4.267,0,0,0,4.379,4.511,4.224,4.224,0,0,0,4.38-4.486h0a4.592,4.592,0,0,0-1.246-3.309A4.3,4.3,0,0,0,427.824,81.714Zm0,8.891a4.173,4.173,0,0,1-4.247-4.4h0a4.487,4.487,0,0,1,1.214-3.236,4.16,4.16,0,0,1,3.032-1.159,4.107,4.107,0,0,1,4.26,4.393A4.16,4.16,0,0,1,427.824,90.6ZM424.145,86.2a3.689,3.689,0,1,0,7.373,0,3.773,3.773,0,0,0-6.323-2.833,3.926,3.926,0,0,0-1.05,2.831Z" transform="translate(-422.877 -81.146)" fill="#221f1f"/>
        </g>
        <g id="Group_21" data-name="Group 21" transform="translate(161.161 0.145)">
          <path id="Path_107" data-name="Path 107" d="M446.146,81.763l6.223,7.649V81.763h.7v9.248h-.277l-6.236-7.636v7.636h-.713V81.763Z" transform="translate(-445.558 -81.479)" fill="#231f20"/>
          <path id="Path_108" data-name="Path 108" d="M453.228,91.17h-.7l-5.818-7.124V91.17h-1.281V81.354h.723l5.8,7.135V81.354h1.269ZM446,90.6h.146V82.454l6.513,7.977V81.922h-.133v8.165L446,82.063Z" transform="translate(-445.434 -81.354)" fill="#221f1f"/>
        </g>
        <g id="Group_22" data-name="Group 22" transform="translate(174.641 0.013)">
          <path id="Path_109" data-name="Path 109" d="M471.969,83.488a2.994,2.994,0,0,0-2.8-1.255c-1.084,0-2.8.4-2.8,1.876,0,1.176,1.269,1.453,2.828,1.744,1.783.343,3.633.66,3.633,2.655-.013,2.087-2.114,2.589-3.659,2.589a4.159,4.159,0,0,1-3.792-2.008l.634-.317a3.623,3.623,0,0,0,3.158,1.678c1.136,0,2.946-.318,2.946-1.955.013-1.387-1.52-1.691-3.039-1.982-1.691-.33-3.421-.674-3.421-2.378-.04-1.955,2-2.563,3.515-2.563a3.555,3.555,0,0,1,3.382,1.572Z" transform="translate(-464.994 -81.289)" fill="#231f20"/>
          <path id="Path_110" data-name="Path 110" d="M469,91.258a4.44,4.44,0,0,1-4.045-2.164l-.129-.254,1.141-.571.128.252a3.351,3.351,0,0,0,2.9,1.522c.8,0,2.662-.163,2.662-1.671.01-1.083-1.106-1.378-2.809-1.7s-3.652-.715-3.652-2.658a2.38,2.38,0,0,1,.681-1.777A4.434,4.434,0,0,1,469,81.165a3.813,3.813,0,0,1,3.618,1.7l.168.25-1.08.637-.147-.235A2.684,2.684,0,0,0,469,82.393c-.254,0-2.514.045-2.514,1.593,0,.915.98,1.164,2.6,1.465l.1.019c1.764.339,3.763.723,3.763,2.914C472.932,90.184,471.459,91.258,469,91.258Zm-3.4-2.172a4,4,0,0,0,3.4,1.6c1.011,0,3.362-.225,3.376-2.308,0-1.6-1.248-1.96-3.3-2.355l-.1-.019c-1.5-.282-3.057-.572-3.057-2.024,0-1.492,1.549-2.16,3.084-2.16a3.382,3.382,0,0,1,2.885,1.159l.086-.05a3.321,3.321,0,0,0-2.97-1.2,3.872,3.872,0,0,0-2.713.9,1.837,1.837,0,0,0-.518,1.375c0,1.378,1.264,1.727,3.193,2.1,1.538.294,3.284.628,3.269,2.263,0,1.4-1.208,2.236-3.23,2.236a4.019,4.019,0,0,1-3.27-1.588Z" transform="translate(-464.827 -81.165)" fill="#221f1f"/>
        </g>
      </g>
    </g>
  </g>
</svg>
